<mxfile host="app.diagrams.net" modified="2021-08-19T02:28:52.627Z" agent="5.0 (Windows NT 10.0; Win64; x64) AppleWebKit/537.36 (KHTML, like Gecko) Chrome/91.0.4472.164 Safari/537.36 OPR/77.0.4054.298" etag="WgAhiK4Wci9RGzQ-zeoy" version="14.9.8" type="github" pages="2">
  <diagram id="eiBYvwaWKlotq3Vqmj6I" name="Page-1">
    <mxGraphModel dx="1379" dy="804" grid="1" gridSize="10" guides="1" tooltips="1" connect="1" arrows="1" fold="1" page="1" pageScale="1" pageWidth="827" pageHeight="1169" math="0" shadow="0">
      <root>
        <mxCell id="0" />
        <mxCell id="1" parent="0" />
        <mxCell id="1rfqkkyeWGp7HfHmdAr6-4" style="edgeStyle=orthogonalEdgeStyle;rounded=0;orthogonalLoop=1;jettySize=auto;html=1;exitX=1;exitY=0.5;exitDx=0;exitDy=0;exitPerimeter=0;entryX=0;entryY=0.5;entryDx=0;entryDy=0;entryPerimeter=0;" edge="1" parent="1" source="1rfqkkyeWGp7HfHmdAr6-1" target="1rfqkkyeWGp7HfHmdAr6-3">
          <mxGeometry relative="1" as="geometry" />
        </mxCell>
        <mxCell id="1rfqkkyeWGp7HfHmdAr6-5" value="Realiza el proceso de matricula" style="edgeLabel;html=1;align=center;verticalAlign=middle;resizable=0;points=[];rotation=90;" vertex="1" connectable="0" parent="1rfqkkyeWGp7HfHmdAr6-4">
          <mxGeometry x="-0.1778" y="-4" relative="1" as="geometry">
            <mxPoint x="19" as="offset" />
          </mxGeometry>
        </mxCell>
        <object placeholders="1" c4Name="Estudiante" c4Type="Person" c4Description="Alumno registrado en el &#xa;sistema banner" label="&lt;b&gt;%c4Name%&lt;/b&gt;&lt;div&gt;[%c4Type%]&lt;/div&gt;&lt;br&gt;&lt;div&gt;%c4Description%&lt;/div&gt;" id="1rfqkkyeWGp7HfHmdAr6-1">
          <mxCell style="html=1;dashed=0;whitespace=wrap;fillColor=#08427b;strokeColor=none;fontColor=#ffffff;shape=mxgraph.c4.person;align=center;metaEdit=1;points=[[0.5,0,0],[1,0.5,0],[1,0.75,0],[0.75,1,0],[0.5,1,0],[0.25,1,0],[0,0.75,0],[0,0.5,0]];metaData={&quot;c4Type&quot;:{&quot;editable&quot;:false}};" vertex="1" parent="1">
            <mxGeometry x="40" y="180" width="150" height="170" as="geometry" />
          </mxCell>
        </object>
        <object placeholders="1" c4Type="Database" c4Technology="Modelo RDF" c4Description="Base del conocimiento" label="%c4Type%&lt;div&gt;[Container:&amp;nbsp;%c4Technology%]&lt;/div&gt;&lt;br&gt;&lt;div&gt;%c4Description%&lt;/div&gt;" id="1rfqkkyeWGp7HfHmdAr6-2">
          <mxCell style="shape=cylinder;whiteSpace=wrap;html=1;boundedLbl=1;rounded=0;labelBackgroundColor=none;fillColor=#438DD5;fontSize=12;fontColor=#ffffff;align=center;strokeColor=#3C7FC0;metaEdit=1;points=[[0.5,0,0],[1,0.25,0],[1,0.5,0],[1,0.75,0],[0.5,1,0],[0,0.75,0],[0,0.5,0],[0,0.25,0]];metaData={&quot;c4Type&quot;:{&quot;editable&quot;:false}};" vertex="1" parent="1">
            <mxGeometry x="770" y="230" width="160" height="140" as="geometry" />
          </mxCell>
        </object>
        <mxCell id="1rfqkkyeWGp7HfHmdAr6-7" style="edgeStyle=orthogonalEdgeStyle;rounded=0;orthogonalLoop=1;jettySize=auto;html=1;exitX=1;exitY=0.5;exitDx=0;exitDy=0;exitPerimeter=0;" edge="1" parent="1" source="1rfqkkyeWGp7HfHmdAr6-3" target="1rfqkkyeWGp7HfHmdAr6-6">
          <mxGeometry relative="1" as="geometry" />
        </mxCell>
        <mxCell id="1rfqkkyeWGp7HfHmdAr6-9" value="Realiza la consulta" style="edgeLabel;html=1;align=center;verticalAlign=middle;resizable=0;points=[];" vertex="1" connectable="0" parent="1rfqkkyeWGp7HfHmdAr6-7">
          <mxGeometry x="0.4522" y="1" relative="1" as="geometry">
            <mxPoint as="offset" />
          </mxGeometry>
        </mxCell>
        <object placeholders="1" c4Name="Sistema de Matriculación" c4Type="Software System" c4Description="Permite la matriculación de estudiantes en el&#xa;periodo seleccionado, según el &#xa;número de créditos aprobados" label="&lt;b&gt;%c4Name%&lt;/b&gt;&lt;div&gt;[%c4Type%]&lt;/div&gt;&lt;br&gt;&lt;div&gt;%c4Description%&lt;/div&gt;" id="1rfqkkyeWGp7HfHmdAr6-3">
          <mxCell style="rounded=1;whiteSpace=wrap;html=1;labelBackgroundColor=none;fillColor=#1168BD;fontColor=#ffffff;align=center;arcSize=10;strokeColor=#1168BD;metaEdit=1;metaData={&quot;c4Type&quot;:{&quot;editable&quot;:false}};points=[[0.25,0,0],[0.5,0,0],[0.75,0,0],[1,0.25,0],[1,0.5,0],[1,0.75,0],[0.75,1,0],[0.5,1,0],[0.25,1,0],[0,0.75,0],[0,0.5,0],[0,0.25,0]];" vertex="1" parent="1">
            <mxGeometry x="280" y="440" width="210" height="140" as="geometry" />
          </mxCell>
        </object>
        <mxCell id="1rfqkkyeWGp7HfHmdAr6-8" style="edgeStyle=orthogonalEdgeStyle;rounded=0;orthogonalLoop=1;jettySize=auto;html=1;" edge="1" parent="1" source="1rfqkkyeWGp7HfHmdAr6-6" target="1rfqkkyeWGp7HfHmdAr6-2">
          <mxGeometry relative="1" as="geometry" />
        </mxCell>
        <mxCell id="1rfqkkyeWGp7HfHmdAr6-10" value="Obtiene la información" style="edgeLabel;html=1;align=center;verticalAlign=middle;resizable=0;points=[];" vertex="1" connectable="0" parent="1rfqkkyeWGp7HfHmdAr6-8">
          <mxGeometry x="-0.2" y="-1" relative="1" as="geometry">
            <mxPoint x="14" y="-1" as="offset" />
          </mxGeometry>
        </mxCell>
        <object placeholders="1" c4Name="Ontology" c4Type="Component" c4Technology="technology" c4Description="Ontología que contiene las clases, jerarquía e instancias" label="&lt;b&gt;%c4Name%&lt;/b&gt;&lt;div&gt;[%c4Type%: %c4Technology%]&lt;/div&gt;&lt;br&gt;&lt;div&gt;%c4Description%&lt;/div&gt;" id="1rfqkkyeWGp7HfHmdAr6-6">
          <mxCell style="rounded=1;whiteSpace=wrap;html=1;labelBackgroundColor=none;fillColor=#85BBF0;fontColor=#ffffff;align=center;arcSize=10;strokeColor=#78A8D8;metaEdit=1;metaData={&quot;c4Type&quot;:{&quot;editable&quot;:false}};points=[[0.25,0,0],[0.5,0,0],[0.75,0,0],[1,0.25,0],[1,0.5,0],[1,0.75,0],[0.75,1,0],[0.5,1,0],[0.25,1,0],[0,0.75,0],[0,0.5,0],[0,0.25,0]];" vertex="1" parent="1">
            <mxGeometry x="450" y="240" width="160" height="110.00000000000001" as="geometry" />
          </mxCell>
        </object>
        <mxCell id="1rfqkkyeWGp7HfHmdAr6-12" value="Resumen de matricula" style="text;html=1;align=center;verticalAlign=middle;resizable=0;points=[];autosize=1;strokeColor=none;rotation=90;" vertex="1" parent="1">
          <mxGeometry x="150" y="350" width="140" height="20" as="geometry" />
        </mxCell>
        <mxCell id="1rfqkkyeWGp7HfHmdAr6-13" value="&lt;b style=&quot;font-size: 22px;&quot;&gt;&lt;font style=&quot;font-size: 22px;&quot;&gt;NIVEL DE CONTEXTO&lt;/font&gt;&lt;/b&gt;" style="text;html=1;align=center;verticalAlign=middle;resizable=0;points=[];autosize=1;strokeColor=none;fontSize=22;" vertex="1" parent="1">
          <mxGeometry x="340" y="95" width="240" height="30" as="geometry" />
        </mxCell>
        <object placeholders="1" c4Name="Ontología" c4Type="Software System" c4Description="Ontología que contiene clases, jerarquía e instancias" label="&lt;b style=&quot;font-size: 12px;&quot;&gt;%c4Name%&lt;/b&gt;&lt;div style=&quot;font-size: 12px;&quot;&gt;[%c4Type%]&lt;/div&gt;&lt;br style=&quot;font-size: 12px;&quot;&gt;&lt;div style=&quot;font-size: 12px;&quot;&gt;%c4Description%&lt;/div&gt;" id="-4osen6M2fMx_XJhwkwH-1">
          <mxCell style="rounded=1;whiteSpace=wrap;html=1;labelBackgroundColor=none;fillColor=#999999;fontColor=#ffffff;align=center;arcSize=10;strokeColor=#8A8A8A;metaEdit=1;metaData={&quot;c4Type&quot;:{&quot;editable&quot;:false}};points=[[0.25,0,0],[0.5,0,0],[0.75,0,0],[1,0.25,0],[1,0.5,0],[1,0.75,0],[0.75,1,0],[0.5,1,0],[0.25,1,0],[0,0.75,0],[0,0.5,0],[0,0.25,0]];fontSize=12;" vertex="1" parent="1">
            <mxGeometry x="450" y="240" width="160" height="110.00000000000001" as="geometry" />
          </mxCell>
        </object>
      </root>
    </mxGraphModel>
  </diagram>
  <diagram id="TsnPV3HS6ukPAs9Ky9VA" name="Page-2">
    <mxGraphModel dx="1379" dy="804" grid="1" gridSize="10" guides="1" tooltips="1" connect="1" arrows="1" fold="1" page="1" pageScale="1" pageWidth="827" pageHeight="1169" math="0" shadow="0">
      <root>
        <mxCell id="Xyuy23qce4Tnx0A981J3-0" />
        <mxCell id="Xyuy23qce4Tnx0A981J3-1" parent="Xyuy23qce4Tnx0A981J3-0" />
        <object placeholders="1" c4Name="Sistema de matriculación" c4Type="ExecutionEnvironment" c4Application="Permite la matricula del estudiante" label="&lt;div style=&quot;text-align: left; font-size: 16px;&quot;&gt;%c4Name%&lt;/div&gt;&lt;div style=&quot;text-align: left; font-size: 16px;&quot;&gt;[%c4Application%]&lt;/div&gt;" id="qnxIYXXrqSsEi_NKuGFw-11">
          <mxCell style="rounded=1;whiteSpace=wrap;html=1;labelBackgroundColor=none;fillColor=#ffffff;fontColor=#000000;align=left;arcSize=5;strokeColor=#000000;verticalAlign=bottom;metaEdit=1;metaData={&quot;c4Type&quot;:{&quot;editable&quot;:false}};points=[[0.25,0,0],[0.5,0,0],[0.75,0,0],[1,0.25,0],[1,0.5,0],[1,0.75,0],[0.75,1,0],[0.5,1,0],[0.25,1,0],[0,0.75,0],[0,0.5,0],[0,0.25,0]];fontSize=16;" vertex="1" parent="Xyuy23qce4Tnx0A981J3-1">
            <mxGeometry x="270" y="340" width="550" height="300" as="geometry" />
          </mxCell>
        </object>
        <mxCell id="Xyuy23qce4Tnx0A981J3-2" value="&lt;b&gt;Nivel de Contenedores&lt;/b&gt;" style="text;html=1;align=center;verticalAlign=middle;resizable=0;points=[];autosize=1;strokeColor=none;fontSize=22;" vertex="1" parent="Xyuy23qce4Tnx0A981J3-1">
          <mxGeometry x="270" y="110" width="250" height="30" as="geometry" />
        </mxCell>
        <object placeholders="1" c4Name="Estudiante" c4Type="Person" c4Description="Alumno registrado en el &#xa;sistema banner" label="&lt;b&gt;%c4Name%&lt;/b&gt;&lt;div&gt;[%c4Type%]&lt;/div&gt;&lt;br&gt;&lt;div&gt;%c4Description%&lt;/div&gt;" id="qnxIYXXrqSsEi_NKuGFw-2">
          <mxCell style="html=1;dashed=0;whitespace=wrap;fillColor=#08427b;strokeColor=none;fontColor=#ffffff;shape=mxgraph.c4.person;align=center;metaEdit=1;points=[[0.5,0,0],[1,0.5,0],[1,0.75,0],[0.75,1,0],[0.5,1,0],[0.25,1,0],[0,0.75,0],[0,0.5,0]];metaData={&quot;c4Type&quot;:{&quot;editable&quot;:false}};" vertex="1" parent="Xyuy23qce4Tnx0A981J3-1">
            <mxGeometry x="40" y="180" width="150" height="170" as="geometry" />
          </mxCell>
        </object>
        <object placeholders="1" c4Type="Database" c4Technology="Modelo RDF" c4Description="Base del conocimiento" label="%c4Type%&lt;div&gt;[Container:&amp;nbsp;%c4Technology%]&lt;/div&gt;&lt;br&gt;&lt;div&gt;%c4Description%&lt;/div&gt;" id="qnxIYXXrqSsEi_NKuGFw-3">
          <mxCell style="shape=cylinder;whiteSpace=wrap;html=1;boundedLbl=1;rounded=0;labelBackgroundColor=none;fillColor=#438DD5;fontSize=12;fontColor=#ffffff;align=center;strokeColor=#3C7FC0;metaEdit=1;points=[[0.5,0,0],[1,0.25,0],[1,0.5,0],[1,0.75,0],[0.5,1,0],[0,0.75,0],[0,0.5,0],[0,0.25,0]];metaData={&quot;c4Type&quot;:{&quot;editable&quot;:false}};" vertex="1" parent="Xyuy23qce4Tnx0A981J3-1">
            <mxGeometry x="830" y="155" width="160" height="140" as="geometry" />
          </mxCell>
        </object>
        <mxCell id="qnxIYXXrqSsEi_NKuGFw-4" style="edgeStyle=orthogonalEdgeStyle;rounded=0;orthogonalLoop=1;jettySize=auto;html=1;dashed=1;" edge="1" parent="Xyuy23qce4Tnx0A981J3-1" source="qnxIYXXrqSsEi_NKuGFw-14" target="qnxIYXXrqSsEi_NKuGFw-9">
          <mxGeometry relative="1" as="geometry">
            <mxPoint x="490" y="510" as="sourcePoint" />
          </mxGeometry>
        </mxCell>
        <mxCell id="qnxIYXXrqSsEi_NKuGFw-5" value="Realiza la consulta" style="edgeLabel;html=1;align=center;verticalAlign=middle;resizable=0;points=[];" vertex="1" connectable="0" parent="qnxIYXXrqSsEi_NKuGFw-4">
          <mxGeometry x="0.4522" y="1" relative="1" as="geometry">
            <mxPoint x="96" y="28" as="offset" />
          </mxGeometry>
        </mxCell>
        <mxCell id="qnxIYXXrqSsEi_NKuGFw-7" style="edgeStyle=orthogonalEdgeStyle;rounded=0;orthogonalLoop=1;jettySize=auto;html=1;dashed=1;" edge="1" parent="Xyuy23qce4Tnx0A981J3-1" source="qnxIYXXrqSsEi_NKuGFw-9" target="qnxIYXXrqSsEi_NKuGFw-3">
          <mxGeometry relative="1" as="geometry" />
        </mxCell>
        <mxCell id="qnxIYXXrqSsEi_NKuGFw-8" value="Obtiene la información" style="edgeLabel;html=1;align=center;verticalAlign=middle;resizable=0;points=[];" vertex="1" connectable="0" parent="qnxIYXXrqSsEi_NKuGFw-7">
          <mxGeometry x="-0.2" y="-1" relative="1" as="geometry">
            <mxPoint x="14" y="-1" as="offset" />
          </mxGeometry>
        </mxCell>
        <object placeholders="1" c4Name="Ontology" c4Type="Component" c4Technology="Proteger" c4Description="Ontología que contiene las clases, jerarquía e instancias" label="&lt;b&gt;%c4Name%&lt;/b&gt;&lt;div&gt;[%c4Type%: %c4Technology%]&lt;/div&gt;&lt;br&gt;&lt;div&gt;%c4Description%&lt;/div&gt;" id="qnxIYXXrqSsEi_NKuGFw-9">
          <mxCell style="rounded=1;whiteSpace=wrap;html=1;labelBackgroundColor=none;fillColor=#85BBF0;fontColor=#ffffff;align=center;arcSize=10;strokeColor=#78A8D8;metaEdit=1;metaData={&quot;c4Type&quot;:{&quot;editable&quot;:false}};points=[[0.25,0,0],[0.5,0,0],[0.75,0,0],[1,0.25,0],[1,0.5,0],[1,0.75,0],[0.75,1,0],[0.5,1,0],[0.25,1,0],[0,0.75,0],[0,0.5,0],[0,0.25,0]];" vertex="1" parent="Xyuy23qce4Tnx0A981J3-1">
            <mxGeometry x="500" y="170" width="160" height="110.00000000000001" as="geometry" />
          </mxCell>
        </object>
        <mxCell id="qnxIYXXrqSsEi_NKuGFw-10" value="Resumen de matricula" style="text;html=1;align=center;verticalAlign=middle;resizable=0;points=[];autosize=1;strokeColor=none;rotation=90;" vertex="1" parent="Xyuy23qce4Tnx0A981J3-1">
          <mxGeometry x="150" y="350" width="140" height="20" as="geometry" />
        </mxCell>
        <mxCell id="qnxIYXXrqSsEi_NKuGFw-15" style="edgeStyle=orthogonalEdgeStyle;rounded=0;orthogonalLoop=1;jettySize=auto;html=1;exitX=1;exitY=0.5;exitDx=0;exitDy=0;exitPerimeter=0;entryX=0;entryY=0.5;entryDx=0;entryDy=0;entryPerimeter=0;dashed=1;fontSize=12;" edge="1" parent="Xyuy23qce4Tnx0A981J3-1" source="qnxIYXXrqSsEi_NKuGFw-12" target="qnxIYXXrqSsEi_NKuGFw-14">
          <mxGeometry relative="1" as="geometry" />
        </mxCell>
        <mxCell id="qnxIYXXrqSsEi_NKuGFw-16" value="consumo de servicio" style="edgeLabel;html=1;align=center;verticalAlign=middle;resizable=0;points=[];fontSize=12;" vertex="1" connectable="0" parent="qnxIYXXrqSsEi_NKuGFw-15">
          <mxGeometry x="-0.1704" y="-4" relative="1" as="geometry">
            <mxPoint x="9" y="-4" as="offset" />
          </mxGeometry>
        </mxCell>
        <object placeholders="1" c4Name="Aplicación de Escritorio Interfaz" c4Type="Component" c4Technology="JavaForms" c4Description="Permite realizar la consulta de la &#xa;base de conocimiento" label="&lt;b style=&quot;font-size: 12px;&quot;&gt;%c4Name%&lt;/b&gt;&lt;div style=&quot;font-size: 12px;&quot;&gt;[%c4Type%: %c4Technology%]&lt;/div&gt;&lt;br style=&quot;font-size: 12px;&quot;&gt;&lt;div style=&quot;font-size: 12px;&quot;&gt;%c4Description%&lt;/div&gt;" id="qnxIYXXrqSsEi_NKuGFw-12">
          <mxCell style="rounded=1;whiteSpace=wrap;html=1;labelBackgroundColor=none;fillColor=#85BBF0;fontColor=#ffffff;align=center;arcSize=10;strokeColor=#78A8D8;metaEdit=1;metaData={&quot;c4Type&quot;:{&quot;editable&quot;:false}};points=[[0.25,0,0],[0.5,0,0],[0.75,0,0],[1,0.25,0],[1,0.5,0],[1,0.75,0],[0.75,1,0],[0.5,1,0],[0.25,1,0],[0,0.75,0],[0,0.5,0],[0,0.25,0]];fontSize=12;" vertex="1" parent="Xyuy23qce4Tnx0A981J3-1">
            <mxGeometry x="305" y="410" width="160" height="110.00000000000001" as="geometry" />
          </mxCell>
        </object>
        <mxCell id="qnxIYXXrqSsEi_NKuGFw-0" style="edgeStyle=orthogonalEdgeStyle;rounded=0;orthogonalLoop=1;jettySize=auto;html=1;exitX=1;exitY=0.5;exitDx=0;exitDy=0;exitPerimeter=0;dashed=1;entryX=0;entryY=0.5;entryDx=0;entryDy=0;entryPerimeter=0;" edge="1" parent="Xyuy23qce4Tnx0A981J3-1" source="qnxIYXXrqSsEi_NKuGFw-2" target="qnxIYXXrqSsEi_NKuGFw-12">
          <mxGeometry relative="1" as="geometry">
            <mxPoint x="280" y="510" as="targetPoint" />
            <Array as="points">
              <mxPoint x="240" y="265" />
              <mxPoint x="240" y="465" />
            </Array>
          </mxGeometry>
        </mxCell>
        <mxCell id="qnxIYXXrqSsEi_NKuGFw-1" value="Realiza el proceso de matricula" style="edgeLabel;html=1;align=center;verticalAlign=middle;resizable=0;points=[];rotation=90;" vertex="1" connectable="0" parent="qnxIYXXrqSsEi_NKuGFw-0">
          <mxGeometry x="-0.1778" y="-4" relative="1" as="geometry">
            <mxPoint x="19" as="offset" />
          </mxGeometry>
        </mxCell>
        <object placeholders="1" c4Name="Aplicación de Escritorio Backend" c4Type="Component" c4Technology="Java- Jena" c4Description="Contiene los procesos para el consumo de la ontología " label="&lt;b style=&quot;font-size: 12px;&quot;&gt;%c4Name%&lt;/b&gt;&lt;div style=&quot;font-size: 12px;&quot;&gt;[%c4Type%: %c4Technology%]&lt;/div&gt;&lt;br style=&quot;font-size: 12px;&quot;&gt;&lt;div style=&quot;font-size: 12px;&quot;&gt;%c4Description%&lt;/div&gt;" id="qnxIYXXrqSsEi_NKuGFw-14">
          <mxCell style="rounded=1;whiteSpace=wrap;html=1;labelBackgroundColor=none;fillColor=#85BBF0;fontColor=#ffffff;align=center;arcSize=10;strokeColor=#78A8D8;metaEdit=1;metaData={&quot;c4Type&quot;:{&quot;editable&quot;:false}};points=[[0.25,0,0],[0.5,0,0],[0.75,0,0],[1,0.25,0],[1,0.5,0],[1,0.75,0],[0.75,1,0],[0.5,1,0],[0.25,1,0],[0,0.75,0],[0,0.5,0],[0,0.25,0]];fontSize=12;" vertex="1" parent="Xyuy23qce4Tnx0A981J3-1">
            <mxGeometry x="620" y="410" width="160" height="110.00000000000001" as="geometry" />
          </mxCell>
        </object>
        <object placeholders="1" c4Name="Ontología" c4Type="Software System" c4Description="Ontología que contiene clases, jerarquía e instancias" label="&lt;b style=&quot;font-size: 12px;&quot;&gt;%c4Name%&lt;/b&gt;&lt;div style=&quot;font-size: 12px;&quot;&gt;[%c4Type%]&lt;/div&gt;&lt;br style=&quot;font-size: 12px;&quot;&gt;&lt;div style=&quot;font-size: 12px;&quot;&gt;%c4Description%&lt;/div&gt;" id="qnxIYXXrqSsEi_NKuGFw-17">
          <mxCell style="rounded=1;whiteSpace=wrap;html=1;labelBackgroundColor=none;fillColor=#999999;fontColor=#ffffff;align=center;arcSize=10;strokeColor=#8A8A8A;metaEdit=1;metaData={&quot;c4Type&quot;:{&quot;editable&quot;:false}};points=[[0.25,0,0],[0.5,0,0],[0.75,0,0],[1,0.25,0],[1,0.5,0],[1,0.75,0],[0.75,1,0],[0.5,1,0],[0.25,1,0],[0,0.75,0],[0,0.5,0],[0,0.25,0]];fontSize=12;" vertex="1" parent="Xyuy23qce4Tnx0A981J3-1">
            <mxGeometry x="500" y="170" width="160" height="110.00000000000001" as="geometry" />
          </mxCell>
        </object>
      </root>
    </mxGraphModel>
  </diagram>
</mxfile>
